<?xml version="1.0" encoding="utf-8"?>
<!-- Generator: Adobe Illustrator 24.3.0, SVG Export Plug-In . SVG Version: 6.00 Build 0)  -->
<svg version="1.1" xmlns="http://www.w3.org/2000/svg" xmlns:xlink="http://www.w3.org/1999/xlink" x="0px" y="0px"
	 viewBox="0 0 180.53 265.64" style="enable-background:new 0 0 180.53 265.64;" xml:space="preserve">
<style type="text/css">
	.st0{fill:#080B27;}
	.st1{fill:#B5001B;}
</style>
<g id="Layer_1">
	<g id="wtkyta.tif_2_">
		<g>
			<path class="st1" d="M63.93,203.31c-10.01-0.1-20.02-0.25-30.03-0.3c-8.3-0.04-16.61-0.02-25.49-0.01
				c-2.45,0-3.99-2.66-2.77-4.78C41.8,135.6,77.63,73.53,113.52,11.38c0.57-0.98,1.62-1.59,2.76-1.59l53.72,0
				c2.43,0,3.94,2.63,2.73,4.73v0C137.37,75.66,102,136.8,66.65,197.95c-1.04,1.79-1.93,3.67-2.89,5.5L63.93,203.31z"/>
			<path class="st1" d="M63.76,203.46c30.07,0.06,60.15,0.13,90.22,0.18c5.97,0.01,11.93,0,18.15,0c1.76,0,3.19,1.42,3.19,3.18
				l0,45.85c0,1.76-1.42,3.18-3.18,3.18l-132.82,0c-2.45,0-3.98-2.65-2.76-4.77c9.17-16,18.27-31.89,27.38-47.77L63.76,203.46z"/>
		</g>
	</g>
</g>
<g id="Layer_2">
</g>
</svg>
