<?xml version="1.0" encoding="utf-8"?>
<!-- Generator: Adobe Illustrator 24.3.0, SVG Export Plug-In . SVG Version: 6.00 Build 0)  -->
<svg version="1.1" xmlns="http://www.w3.org/2000/svg" xmlns:xlink="http://www.w3.org/1999/xlink" x="0px" y="0px"
	 viewBox="0 0 914.32 265.64" style="enable-background:new 0 0 914.32 265.64;" xml:space="preserve">
<style type="text/css">
	.st0{fill:#080B27;}
	.st1{fill:#B5001B;}
</style>
<g id="Layer_1">
	<g>
		<g>
			<path class="st0" d="M311.31,165.2v26.03h-77.81V61.57h28.05V165.2H311.31z"/>
			<path class="st0" d="M423.57,140.86c0,2.64-0.19,5.29-0.52,7.93h-75.7c2.35,13.65,11.32,21.17,24.44,21.17
				c9.4,0,17.11-4.45,21.22-11.6h28.42c-7.27,21.81-26.42,35.7-49.64,35.7c-29.53,0-51.88-22.87-51.88-52.84
				c0-30.13,22.19-52.84,51.88-52.84C402.5,88.37,423.57,112.05,423.57,140.86L423.57,140.86z M348.05,130.32h48.47
				c-3.82-12.23-12.6-18.86-24.74-18.86C359.74,111.46,351.2,118.48,348.05,130.32z"/>
			<path class="st0" d="M502.5,167.15v24.08h-19.21c-22.01,0-35.53-13.52-35.53-35.72v-42.57h-18.09v-5.84l39.5-42h5.17v26.1h27.6
				v21.74H474.8v38.98c0,9.66,5.56,15.22,15.41,15.22H502.5z"/>
			<path class="st0" d="M578.23,88.83c22.65,0,36.71,16.15,36.71,41.63v60.77h-27.04v-56.24c0-14.97-5.29-22.41-17.45-22.41
				c-13.49,0-22.45,9.83-22.45,26.08v52.57h-27.04V55.15H548v45.33C555.59,93.26,566.28,88.83,578.23,88.83L578.23,88.83z"/>
			<path class="st0" d="M736.77,140.86c0,2.64-0.19,5.29-0.52,7.93h-75.7c2.35,13.65,11.32,21.17,24.44,21.17
				c9.4,0,17.11-4.45,21.22-11.6h28.42c-7.27,21.81-26.42,35.7-49.64,35.7c-29.53,0-51.88-22.87-51.88-52.84
				c0-30.13,22.19-52.84,51.88-52.84C715.71,88.37,736.77,112.05,736.77,140.86L736.77,140.86z M661.26,130.32h48.47
				c-3.82-12.23-12.6-18.86-24.74-18.86C672.95,111.46,664.4,118.48,661.26,130.32z"/>
			<path class="st0" d="M756,55.15h27.04v136.08H756V55.15z"/>
			<path class="st0" d="M910.81,91.05v100.03h-21.2l-2.32-8.95c-8.59,7.52-19.8,11.93-32.41,11.93c-30.09,0-52.47-22.72-52.47-52.99
				c0-30.16,22.38-52.69,52.47-52.69c12.84,0,24.22,4.52,32.86,12.23l2.89-9.56L910.81,91.05z M884.31,141.07
				c0-15.71-11.52-27.41-27.23-27.41c-15.71,0-27.26,11.74-27.26,27.41s11.55,27.41,27.26,27.41
				C872.79,168.48,884.31,156.78,884.31,141.07z"/>
		</g>
		<g id="wtkyta.tif_2_">
			<g>
				<path class="st1" d="M62.23,197.18c-10.01-0.1-20.02-0.25-30.03-0.3c-8.3-0.04-16.61-0.02-25.49-0.01
					c-2.45,0-3.99-2.66-2.77-4.78C40.09,129.48,75.93,67.41,111.81,5.26c0.57-0.98,1.62-1.59,2.76-1.59l53.72,0
					c2.43,0,3.94,2.63,2.73,4.73v0C135.66,69.54,100.3,130.68,64.95,191.83c-1.04,1.79-1.93,3.67-2.89,5.5L62.23,197.18z"/>
				<path class="st1" d="M62.06,197.33c30.07,0.06,60.15,0.13,90.22,0.18c5.97,0.01,11.93,0,18.15,0c1.76,0,3.19,1.42,3.19,3.18
					l0,45.85c0,1.76-1.42,3.18-3.18,3.18l-132.82,0c-2.45,0-3.98-2.65-2.76-4.77c9.17-16,18.27-31.89,27.38-47.77L62.06,197.33z"/>
			</g>
		</g>
		<g>
			<path class="st1" d="M628.07,245.6c-1.73-1.49-4.3-2.65-7.71-3.47c-3.41-0.82-5.64-1.59-6.69-2.31
				c-1.05-0.71-1.57-1.74-1.57-3.09c0-1.35,0.52-2.36,1.57-3.02c1.05-0.67,2.39-1,4.02-1c1.63,0,3.29,0.29,4.97,0.86
				c1.68,0.57,3.01,1.3,4,2.19l3-4.24c-1.52-1.27-3.33-2.25-5.43-2.95c-2.09-0.7-4.2-1.05-6.33-1.05c-3.3,0-6.07,0.83-8.31,2.5
				c-2.24,1.67-3.36,4.04-3.36,7.12s0.98,5.36,2.95,6.85c0.98,0.79,2.11,1.44,3.38,1.93c1.27,0.49,3.12,1.03,5.57,1.62
				c2.44,0.59,4.16,1.24,5.16,1.95c1,0.71,1.5,1.71,1.5,3c0,1.28-0.53,2.32-1.59,3.09c-1.06,0.78-2.5,1.17-4.31,1.17
				c-3.62,0-7.11-1.46-10.47-4.38l-3.52,4.24c4.03,3.59,8.65,5.38,13.85,5.38c3.55,0,6.43-0.9,8.62-2.71s3.28-4.16,3.28-7.07
				C630.66,249.29,629.8,247.09,628.07,245.6z"/>
			<rect x="637.61" y="228.32" class="st1" width="5.62" height="33.27"/>
			<polygon class="st1" points="671.78,228.32 662.69,243.46 653.6,228.32 647.46,228.32 659.84,248.46 659.84,261.59 
				665.55,261.59 665.55,248.46 677.92,228.32 			"/>
			<path class="st1" d="M689.78,228.32l-14.66,33.27h6l3.33-7.57h16.66l3.33,7.57h6l-14.66-33.27H689.78z M686.73,248.84l6.04-13.71
				l6.04,13.71H686.73z"/>
			<path class="st1" d="M735.49,245.6c-1.73-1.49-4.3-2.65-7.71-3.47c-3.41-0.82-5.64-1.59-6.69-2.31
				c-1.05-0.71-1.57-1.74-1.57-3.09c0-1.35,0.52-2.36,1.57-3.02c1.05-0.67,2.39-1,4.02-1c1.63,0,3.29,0.29,4.97,0.86
				c1.68,0.57,3.01,1.3,4,2.19l3-4.24c-1.52-1.27-3.33-2.25-5.43-2.95c-2.09-0.7-4.21-1.05-6.33-1.05c-3.3,0-6.07,0.83-8.31,2.5
				c-2.24,1.67-3.36,4.04-3.36,7.12s0.98,5.36,2.95,6.85c0.98,0.79,2.11,1.44,3.38,1.93c1.27,0.49,3.13,1.03,5.57,1.62
				c2.44,0.59,4.16,1.24,5.16,1.95c1,0.71,1.5,1.71,1.5,3c0,1.28-0.53,2.32-1.59,3.09c-1.06,0.78-2.5,1.17-4.31,1.17
				c-3.62,0-7.11-1.46-10.47-4.38l-3.52,4.24c4.03,3.59,8.65,5.38,13.85,5.38c3.55,0,6.43-0.9,8.61-2.71
				c2.19-1.81,3.29-4.16,3.29-7.07C738.09,249.29,737.22,247.09,735.49,245.6z"/>
			<polygon class="st1" points="767.17,242.75 750.65,242.75 750.65,228.32 745.03,228.32 745.03,261.59 750.65,261.59 
				750.65,247.98 767.17,247.98 767.17,261.59 772.78,261.59 772.78,228.32 767.17,228.32 			"/>
			<polygon class="st1" points="787.63,247.41 803.58,247.41 803.58,242.41 787.63,242.41 787.63,233.61 805.39,233.61 
				805.39,228.32 782.02,228.32 782.02,261.59 805.96,261.59 805.96,256.31 787.63,256.31 			"/>
			<path class="st1" d="M833.59,245.6c-1.73-1.49-4.3-2.65-7.71-3.47c-3.41-0.82-5.64-1.59-6.69-2.31
				c-1.05-0.71-1.57-1.74-1.57-3.09c0-1.35,0.52-2.36,1.57-3.02c1.05-0.67,2.39-1,4.02-1c1.63,0,3.29,0.29,4.97,0.86
				c1.68,0.57,3.01,1.3,4,2.19l3-4.24c-1.52-1.27-3.33-2.25-5.43-2.95c-2.09-0.7-4.2-1.05-6.33-1.05c-3.3,0-6.07,0.83-8.31,2.5
				c-2.24,1.67-3.36,4.04-3.36,7.12s0.98,5.36,2.95,6.85c0.98,0.79,2.11,1.44,3.38,1.93c1.27,0.49,3.13,1.03,5.57,1.62
				c2.44,0.59,4.16,1.24,5.16,1.95s1.5,1.71,1.5,3c0,1.28-0.53,2.32-1.59,3.09c-1.06,0.78-2.5,1.17-4.31,1.17
				c-3.62,0-7.11-1.46-10.47-4.38l-3.52,4.24c4.03,3.59,8.65,5.38,13.85,5.38c3.55,0,6.43-0.9,8.61-2.71s3.28-4.16,3.28-7.07
				C836.18,249.29,835.32,247.09,833.59,245.6z"/>
			<polygon class="st1" points="865.26,242.75 848.74,242.75 848.74,228.32 843.13,228.32 843.13,261.59 848.74,261.59 
				848.74,247.98 865.26,247.98 865.26,261.59 870.88,261.59 870.88,228.32 865.26,228.32 			"/>
			<path class="st1" d="M896.15,228.32h-6l-14.66,33.27h6l3.33-7.57h16.66l3.33,7.57h6L896.15,228.32z M887.11,248.84l6.04-13.71
				l6.04,13.71H887.11z"/>
		</g>
	</g>
</g>
<g id="Layer_2">
</g>
</svg>
